<svg width="82" height="38" viewBox="0 0 82 38" fill="none" xmlns="http://www.w3.org/2000/svg">
<ellipse cx="41" cy="19" rx="40.5" ry="18.5" fill="#FE938C"/>
<path d="M17.6792 13.112L18.6392 15.248L12.0872 18.272L18.6872 21.44L17.6792 23.6L8.89515 19.28V17.408L17.6792 13.112ZM22.3629 23.192V12.152L20.9949 12.08V10.04H26.7549V11.984L25.9629 12.056C25.4989 12.104 25.2669 12.36 25.2669 12.824V18.104L30.1629 12.152L28.8189 12.08V10.04H34.4349V11.984L33.6429 12.056C33.3389 12.088 33.0189 12.312 32.6829 12.728L29.2749 16.904L33.5229 23.888L34.7949 23.96V26H28.6509V24.056L29.3949 23.984C29.7149 23.952 29.8749 23.824 29.8749 23.6C29.8749 23.504 29.8349 23.376 29.7549 23.216L27.3789 19.112L25.2669 21.656V23.888L26.6349 23.96V26H20.8749V24.056L21.6669 23.984C21.9069 23.952 22.0829 23.888 22.1949 23.792C22.3069 23.68 22.3629 23.48 22.3629 23.192ZM44.4686 22.784C44.1966 25.136 42.6206 26.312 39.7406 26.312C38.2366 26.312 36.8926 25.976 35.7086 25.304V21.104L38.1566 20.936V22.832C38.1566 23.072 38.1886 23.248 38.2526 23.36C38.3166 23.472 38.4846 23.584 38.7566 23.696C39.0286 23.792 39.4446 23.84 40.0046 23.84C40.5806 23.84 40.9966 23.672 41.2526 23.336C41.5086 22.984 41.6366 22.424 41.6366 21.656V12.176L39.7646 12.08V10.04H46.0526V11.984L45.2606 12.056C44.7966 12.104 44.5646 12.352 44.5646 12.8V20.264C44.5646 21.4 44.5326 22.24 44.4686 22.784ZM53.8485 28.64L51.4005 27.728L58.7445 7.88L61.2405 8.768L53.8485 28.64ZM63.1541 15.248L64.1141 13.112L72.8981 17.408V19.28L64.1141 23.6L63.1061 21.44L69.7061 18.272L63.1541 15.248Z" fill="#4D2A27"/>
</svg>
